<?xml version="1.0" encoding="UTF-8"?>
<svg id="Layer_1" data-name="Layer 1" xmlns="http://www.w3.org/2000/svg" viewBox="0 0 509.04 718.44">
  <defs>
    <style>
      .cls-1 {
        fill: #86cac2;
      }

      .cls-2 {
        fill: #7e515e;
      }

      .cls-3 {
        fill: #b5855d;
      }

      .cls-4 {
        fill: #a2d5d0;
      }

      .cls-5 {
        fill: #dab17e;
      }

      .cls-6 {
        fill: #79beb6;
      }

      .cls-7 {
        fill: #fdf6fa;
      }

      .cls-8 {
        fill: #dc9e30;
      }

      .cls-9 {
        fill: #f7bc42;
      }

      .cls-10 {
        fill: #98c457;
      }

      .cls-11 {
        fill: #c88021;
      }

      .cls-12 {
        fill: #c59066;
      }

      .cls-13 {
        fill: #7ebd68;
      }

      .cls-14 {
        fill: #ee7a38;
      }

      .cls-15 {
        fill: #d3b08a;
      }

      .cls-16 {
        fill: #d56429;
      }

      .cls-17 {
        fill: #92625c;
      }

      .cls-18 {
        fill: #8bccc8;
      }

      .cls-19 {
        fill: #5e9a43;
      }

      .cls-20 {
        fill: #f7bb29;
      }

      .cls-21 {
        fill: #7aaabf;
      }

      .cls-22 {
        fill: #e39422;
      }

      .cls-23 {
        fill: #94704e;
      }

      .cls-24 {
        fill: #a8d8ea;
      }
    </style>
  </defs>
  <path class="cls-3" d="M361.77,270.44l-2.5,24h-227.5l-2.5-24-58-22h121c0,17.12,23.95,31,53.5,31s53.5-13.88,53.5-31h121l-58.5,22Z"/>
  <path class="cls-23" d="M129.27,270.44l2.5,24H45.77l83.5-24Z"/>
  <path class="cls-23" d="M361.77,270.44l-2.5,24h86l-83.5-24Z"/>
  <path class="cls-12" d="M70.77,247.94l58.5,22.5-58,16.5-.5-39Z"/>
  <path class="cls-12" d="M420.27,247.94l-58.5,22.5,58,16.5.5-39Z"/>
  <path class="cls-3" d="M309.26,293.44c0,.17,0,.33,0,.5,0,20.16-28.43,36.5-63.5,36.5s-63.5-16.34-63.5-36.5c0-.17,0-.33,0-.5h126.99Z"/>
  <g>
    <rect class="cls-4" x="217.85" y="234.21" width="196.99" height="102.07" transform="translate(-26.61 537.88) rotate(-78.42)"/>
    <rect class="cls-18" x="274.14" y="239.58" width="82.2" height="102.08" transform="translate(-32.76 541.08) rotate(-78.42)"/>
    <polygon class="cls-24" points="286.11,178.52 386.11,199.01 386.11,247.01 286.11,226.52"/>
    <polygon class="cls-1" points="386.11 199.01 424.96 148.02 331.46 128.86 286.11 178.52 386.11 199.01"/>
    <polygon class="cls-4" points="335.72 113.78 332.9 129.04 426.4 148.2 429.42 132.98 335.72 113.78"/>
    <rect class="cls-6" x="297.62" y="271.1" width="196.99" height="61.01" transform="translate(21.14 629.11) rotate(-78.42)"/>
    <rect class="cls-21" x="353.92" y="276.47" width="82.2" height="61.01" transform="translate(15 632.32) rotate(-78.42)"/>
    <polygon class="cls-6" points="424.96 148.02 424.96 148.02 386.01 198.99 445.77 211.23 424.96 148.02"/>
    <path class="cls-7" d="M297.03,328.52c.68-2.91,1.4-5.82,2.15-8.72.21-.82-.28-1.84-1.05-2.19-.78-.35-1.85-.27-2.41.45-4.14,5.33-8.28,10.67-12.42,16.01-.29.37-.58.74-.86,1.11-1.01-5.31-2.22-10.58-3.65-15.79-.51-1.87-1.04-3.72-1.61-5.57-.25-.81-1.18-1.45-2.04-1.36-.95.1-1.56.72-1.83,1.6-3.01,9.64-5.15,19.52-7.09,29.42-.55,2.8-1.08,5.6-1.62,8.39-.19,1.03.48,2.2,1.56,2.37,1.06.17,2.16-.46,2.37-1.56,1.89-9.91,3.78-19.84,6.36-29.6.12-.46.24-.91.37-1.37.29,1.06.57,2.13.83,3.2.41,1.64.8,3.29,1.17,4.94.18.83.36,1.66.54,2.48.08.39.16.78.24,1.17l.11.54v.02s.08.41.08.41c.37,1.87.71,3.75,1.02,5.63.14.81.53,1.46,1.35,1.74.71.25,1.66.09,2.15-.54,3.42-4.41,6.84-8.81,10.26-13.22-1.73,7.39-3.24,14.82-4.53,22.3-.51,2.95-.98,5.9-1.43,8.87-.16,1.04.45,2.19,1.57,2.37,1.03.16,2.2-.45,2.37-1.56,1.58-10.58,3.59-21.1,6.03-31.52Z"/>
    <path class="cls-7" d="M306.45,328.59c-1.16-.18-2.04.49-2.37,1.56-2.31,7.5-4.47,15.05-6.47,22.64-.56,2.14-1.11,4.28-1.66,6.43-.26,1.02.53,2.2,1.57,2.37,1.11.18,2.09-.47,2.37-1.56,1.92-7.61,3.98-15.19,6.21-22.72.62-2.12,1.26-4.24,1.92-6.35.31-1.01-.56-2.21-1.56-2.37Z"/>
    <path class="cls-7" d="M308.97,320.09c-1.03-.21-2.2.49-2.37,1.56-.17,1.07.46,2.14,1.57,2.37,1.03.21,2.2-.49,2.37-1.56.17-1.08-.46-2.14-1.57-2.37Z"/>
    <path class="cls-7" d="M321.33,362.3c-3.63-1.06-7.26-2.14-10.88-3.24,1.57-4.65,3-9.34,4.28-14.07,1.45-5.35,2.71-10.74,3.78-16.18.6-3.05,1.14-6.12,1.63-9.19.16-1.04-.46-2.19-1.56-2.37-1.04-.16-2.2.45-2.37,1.56-.86,5.44-1.9,10.86-3.13,16.23-1.23,5.4-2.66,10.75-4.26,16.05-.9,2.98-1.87,5.94-2.88,8.88-.15.43.03,1.15.29,1.51.33.45.74.7,1.27.86,4.33,1.32,8.67,2.62,13.02,3.88,1.01.29,2.21-.55,2.37-1.56.18-1.15-.48-2.06-1.57-2.37Z"/>
    <path class="cls-7" d="M348.07,367.91c-.19-.6-.58-1.13-1.16-1.43l-.08-.03-.12-.31c-.25-.65-.49-1.29-.74-1.94-.49-1.3-.98-2.59-1.48-3.88-1-2.62-1.99-5.23-2.99-7.85-.42-1.1-.84-2.2-1.26-3.3,3.89-3.99,7.7-8.08,11.39-12.26,1.13-1.28,2.25-2.56,3.35-3.86.69-.8.7-2.13-.15-2.83-.83-.68-2.11-.7-2.83.15-3.72,4.33-7.54,8.56-11.47,12.7.97-3.64,2.02-7.26,3.18-10.85.48-1.49.97-2.97,1.48-4.45l.19-.54.05-.15v-.04c.15-.39.29-.78.43-1.16.27-.75.54-1.5.81-2.24.19-.53.3-1.01.11-1.56-.15-.46-.55-.94-.99-1.14-.89-.41-2.31-.18-2.7.88-1.98,5.37-3.77,10.8-5.34,16.3-1.55,5.41-2.89,10.87-4.02,16.38-.64,3.09-1.21,6.19-1.71,9.3-.17,1.04.46,2.2,1.56,2.37,1.04.16,2.19-.45,2.37-1.56.56-3.47,1.21-6.93,1.93-10.37.68,1.79,1.36,3.57,2.04,5.36.66,1.74,1.32,3.47,1.99,5.21.33.85.65,1.71.98,2.56.37.98.66,2.07,1.45,2.81.76.7,1.99.83,2.86.26.81-.53,1.18-1.6.87-2.51Z"/>
  </g>
  <g>
    <path class="cls-22" d="M214,47.6c-6.54-17.39-16.19-36.49-34.23-44.2-20.37-8.71-44.25.58-60.72,13.41-8.34,6.5-15.49,14.67-20.01,24.28-4.75,10.09-6.26,21.28-5.96,32.35.32,11.76,2.46,23.39,4.48,34.94,2.38,13.66,4.88,27.29,7.48,40.9,6.15,32.22,12.92,64.33,20.27,96.31,3.03,32.32,6.28,64.63,11.66,96.66,8.65,51.56,22.86,103.18,49.48,148.57,11.23,19.14,26.58,38.12,49.4,42.98,10.31,2.19,21.22,1.16,30.42-4.2,9.85-5.74,17.04-15.35,22.66-25.07,24.75-42.84,18.45-94.58,8.11-140.66-11.98-53.38-25.85-106.38-38.99-159.48-6.66-26.95-13.37-53.89-20.69-80.66-6.98-25.52-14.01-51.34-23.34-76.12"/>
    <path class="cls-11" d="M125.01,126.89c1.69-.71,2.99-2.02,4.31-3.23,4.96-4.57,9.6-9.46,14.27-14.33,4.65-4.86,9.33-9.71,14.36-14.21,1.25-1.12,2.51-2.21,3.8-3.27,1.33-1.1,2.39-1.94,3.43-2.74,2.53-1.96,5.11-3.84,7.69-5.74,5.3-3.89,10.63-7.78,15.56-12.13,2.38-2.1,4.67-4.32,6.78-6.68,2.12-2.38,4.1-4.91,5.15-7.96.5-1.44.71-3.06.53-4.58-.23-1.92-1.66-3.31-3.69-2.84-9.47,2.21-17.82,7.16-25.39,13.1-.84-.36-1.81-.39-2.6.16-10.39,7.23-20.01,15.56-28.61,24.86-4.34,4.71-8.41,9.67-12.22,14.82-1.84,2.49-3.62,5.03-5.34,7.62-1.69,2.58-3.64,5.2-4.77,8.1-1.02,2.62-1.2,6.11,1.01,8.18,1.54,1.45,3.83,1.67,5.73.87M190.19,57.67l.52-.23.47-.2.26-.1.67-.27,1.34-.5.77-.26-.28.53c-.34.58-.73,1.14-1.13,1.69v.02s-.32.39-.32.39l-.59.71-.1-.17c-.46-.71-1.24-1.23-2.08-1.41l.46-.21M172.2,69.46c.61-.5,1.21-1,1.81-1.5l.92-.74.46-.37.15-.12.18-.13c1.28-.98,2.56-1.93,3.87-2.84,1.41-.98,2.85-1.9,4.31-2.78-4.29,3.02-8.52,6.13-12.68,9.34l.99-.86M123.57,120.32l.6.12-.36.32-.38.34v-.12s0,.12,0,.12l-.02.02.17-.8M123.41,121.83l.07.19-.03-.06-.04-.13M123.33,121.76v-.02s0,.02,0,.02"/>
    <path class="cls-11" d="M134.63,214.86c.95-.37,1.86-.81,2.75-1.28.95.3,2.03.12,2.85-.74,1.05-1.13,2.09-2.26,3.15-3.38.91-.75,1.81-1.52,2.7-2.31,2.84-2.48,5.75-4.91,8.7-7.25l.89-.7.37-.29.41-.32c.75-.58,1.51-1.17,2.27-1.75,1.53-1.16,3.07-2.31,4.61-3.46,3.02-2.24,6.07-4.46,9.11-6.67,12.21-8.88,24.57-17.81,35.16-28.65,5.27-5.39,10.08-11.28,14.11-17.66,1.09-1.72,2.18-3.45,2.77-5.41.67-2.21.42-4.55-.64-6.6-1.88-3.58-6.23-5.66-10.18-5.5-4.77.18-8.94,2.7-12.86,5.19l-.63.41c-.92-.93-2.51-1.42-3.64-.57-12.26,9.19-24.06,18.98-35.32,29.37-5.36,4.94-10.72,9.96-15.57,15.41-4.61,5.18-8.82,10.88-11.56,17.28-3.09,7.23-4.49,15.01-3.03,22.81.26,1.44,2.2,2.6,3.59,2.06M218.89,131.58l-.09-.24.09.24M210.29,129.51l1.44-.46.58-.14.59-.12h-.03l1.48-.05.35.02.29.04,1.13.31.23.09.47.24.6.36.06.04.75.69c.13.12.48.69.1.09l.25.36.2.3.02.06.1.32.12.4v.15s-.03.64-.03.64l-.03.11-.1.36c-.14-.66-.5-1.27-1.09-1.71-1.11-.85-2.79-.81-3.8.22l-.96-.91-1.35-.35h0c-.37-.48-.92-.83-1.51-1.01l.17-.07M192.59,162.5l1.22-.4c1.49-.97,2.94-1.99,4.35-3.06-2.72,2.51-5.52,4.91-8.38,7.25-.67.55-1.34,1.09-2.02,1.63l-1.01.82-.51.4-.27.22c-1.33,1.03-2.66,2.06-4.01,3.07,3.69-3.14,7.23-6.46,10.62-9.93M170.25,180.97c.62-.54,1.25-1.09,1.86-1.64h.54c-.93.7-1.87,1.37-2.81,2.06l.41-.42M143.95,199.14l.55-.75.04-.05.39-.49c.48-.61.98-1.2,1.49-1.79,1.93-2.24,3.93-4.44,5.94-6.61l.17.16.83.61-.94,1c-3.48,3.73-6.97,7.46-10.45,11.19.58-1.13,1.26-2.22,1.99-3.26M137.36,198.21l.3-.98.19-.05.56-.23c-.43.64-.84,1.31-1.22,1.99l.17-.72"/>
    <polyline class="cls-11" points="242.24 199.75 242.09 199.69 242.27 199.76 242.24 199.75"/>
    <path class="cls-11" d="M248.76,197.68c-2-2.7-5.22-4.12-8.55-4.23-3.75-.12-7.32,1.6-10.51,3.39-3.02,1.71-5.99,3.48-8.97,5.27-5.88,3.56-11.68,7.23-17.4,11.06-11.6,7.74-22.83,16.04-33.68,24.8-5.33,4.31-10.56,8.73-15.67,13.28-4.51,4.02-8.87,8.3-12.15,13.41-.99,1.55-1.83,3.18-2.54,4.88-1.01,1.72-1.87,3.5-2.54,5.36-1.2,3.3-.75,7.16,2.15,9.44,2.76,2.16,6.48,2.62,9.75,1.43,3.46-1.27,6.29-3.66,9.22-5.85,2.94-2.2,5.9-4.4,8.85-6.6,11.75-8.78,23.52-17.55,35.27-26.32,11.53-8.6,23.32-16.96,34.31-26.25,2.67-2.26,5.3-4.6,7.82-7.01,2.07-1.98,4.1-4.18,5.24-6.84,1.29-2.99,1.42-6.5-.61-9.22M141.96,278.94l.02.02h0s-.02-.02-.02-.02M141.98,278.99v-.02l.05.12-.05-.1M145.58,280.56l.15-.02-.15.02M155.67,274.31c-2.7,2.02-5.33,4.12-8.31,5.71l-.05.03h-.05s-.42.16-.42.16l-1.14.31-.14.03h-.28s-.92-.02-.92-.02l-.5-.11-.44-.14-.23-.1-.11-.06-.39-.22-.33-.31-.04-.04.09.13-.09-.14-.08-.11-.07-.12-.08-.16-.06-.18-.05-.2-.02-.29.02-.51v-.02s.19-.73.19-.73c1.57.28,3.2.02,4.77-.55l.6.64c1.13.86,2.82.81,3.83-.26,2.38-2.49,4.75-5,7.12-7.51l1.09-.75,1.36-.98c1.01.24,1.99.35,2.96.34-2.75,2.04-5.49,4.09-8.23,6.14M163.33,253.67c-4.08,4.3-7.96,8.79-11.65,13.43-.63.42-1.25.83-1.87,1.24-.9.59-1.8,1.17-2.7,1.74l-1.13.65-.39.2-.28.12.49-.76c.41-.62.85-1.23,1.29-1.84l.25-.34.02-.03.04-.05.79-.99c3.94-4.92,8.51-9.37,13.11-13.67,4.69-4.39,9.57-8.58,14.58-12.59.61-.5,1.24-.99,1.86-1.48l.26-.21.31-.23,1.05-.82c1.26-.97,2.52-1.92,3.78-2.88,1.57-1.17,3.15-2.33,4.73-3.48-8.73,6.67-16.97,14.02-24.53,21.99M212.77,227.47c-1.38,1.08-2.18,1.7-3.56,2.79-4.94,3.86-9.89,7.69-14.85,11.51,1.44-1.16,2.88-2.34,4.33-3.5,1.59-1.29,3.19-2.57,4.8-3.84,1.72-1.37,2.96-2.35,4.46-3.51,2.59-2.01,5.2-3.98,7.83-5.93l.12.03c-1.05.81-2.08,1.63-3.12,2.45M222.93,208.45l-.48.26.96-.61.08-.05-.55.4M242.91,206.42l-.12.17h0s.12-.17.12-.17M244.36,201.83l.07.27.04,1.01v.05l-.06.27-.26.84v.03s-.11.22-.11.22l-.49.92-.05.09-1.59-.47v-.03c-.53-1.23-2.09-2.23-3.45-1.7l-1.4.56-.07-.13c-.65-.99-2.08-1.83-3.29-1.34-1.69.7-3.34,1.49-4.94,2.35.91-.57,1.81-1.13,2.71-1.69l.99-1.05c.75-.43,1.51-.85,2.29-1.23l1.13-.54.05-.02.09-.04.58-.21c.78-.28,1.58-.5,2.4-.64l.72-.04.92.03h.05l-.11-.02.13.02.17.03.16.03.9.24.14.05.15.05.15.05-.12-.04.06.03.79.44.2.13.1.09.32.3.23.26.06.11.23.38.09.24.02.09"/>
    <polyline class="cls-11" points="240.89 199.38 240.72 199.35 240.7 199.34 240.89 199.38"/>
    <polyline class="cls-11" points="142.3 279.55 142.31 279.56 142.23 279.44 142.3 279.55"/>
    <path class="cls-11" d="M258.97,272.68c-2.97-.85-6.16-.23-9.08.46-2.03.48-4.04,1.09-6.01,1.77-.92-.72-2.15-.82-3.27-.24-8.31,4.25-16.4,8.9-24.27,13.91-10.92,6.5-21.37,13.76-31.3,21.68-5.36,4.28-10.59,8.74-15.58,13.45-4.3,4.05-8.47,8.52-11.27,13.77-1.38,2.62-2.45,5.43-2.98,8.34l-.05.8c-.9,1.95-1.71,3.94-2.39,5.99-.54,1.61-1.03,3.22-1.22,4.91-.24,2.03.42,4.03,1.76,5.55,2.2,2.48,6.03,3.21,9.13,2.27,3.62-1.1,6.37-3.87,9.14-6.3,2.67-2.35,5.37-4.67,8.08-6.98,11-9.32,21.67-17.71,33.32-26.16,5.81-4.22,11.68-8.31,17.64-12.3,5.36-3.59,10.89-6.96,16.1-10.76,5.11-3.7,9.85-7.81,13.53-12.96,1.96-2.74,3.84-5.88,4.19-9.29.38-3.7-1.96-6.89-5.47-7.91M168.57,353.92c-1.26,1.1-2.5,2.22-3.77,3.32l-.89.74-.03.02-.05.05-.47.34c-.62.43-1.28.85-1.98,1.16l-.74.23-.37.1h-.96l-.58-.13-.34-.11h-.01s-.33-.14-.33-.14l-.46-.38-.07-.15-.14-.36v-.05s-.01-.01-.01-.01v-.02s0-.56,0-.56v-.08c.17-.76.36-1.51.59-2.25l.5-1.54.03.63c.08,1.06.5,2,1.48,2.55.84.49,2.12.58,2.94-.02,3.83-2.77,7.64-5.55,11.46-8.33-1.95,1.65-3.88,3.31-5.8,5M182.85,321.7c-4.18,3.91-8.36,7.86-12.15,12.15-.8.8-1.6,1.61-2.37,2.42l.37-.47c.45-.58.92-1.16,1.4-1.72.95-1.14,1.93-2.26,2.93-3.36,3.93-4.31,8.19-8.31,12.61-12.12,2.3-1.99,4.64-3.93,7.01-5.84-3.31,2.93-6.56,5.93-9.79,8.94M211.04,305.71c-1.22.96-2.45,1.92-3.66,2.88l-.03.03-.4-.19c2.22-1.71,4.5-3.35,6.93-4.96-.94.75-1.89,1.5-2.83,2.24M216.69,308.64c1.23-.97,2.47-1.93,3.7-2.91,4.18-3.31,8.35-6.64,12.51-9.97l1.01-.46.08.14,1.06,1.01c-6.22,3.9-12.35,7.97-18.36,12.2M258.62,279.52v.71l-.31,1.21-.19.53-.04.09-.28.57c-.64-.36-1.41-.48-2.2-.31-1.54.34-3.07.76-4.59,1.23-.12-.57-.39-1.13-.8-1.49-.81-.73-1.72-.91-2.65-.71-.72-.6-1.72-.94-2.62-.6-4.59,1.75-8.77,4.14-12.58,7.2-3.82,1.2-7.5,2.72-11.06,4.49,3.01-1.75,6.06-3.45,9.15-5.09,3.11-1.66,6.26-3.24,9.5-4.67l.58-.26.24-.1,1.07-.44c.83-.33,1.66-.65,2.51-.95,1.62-.59,3.27-1.13,4.94-1.58,1.62-.45,3.26-.82,4.91-1.12l.09-.02h.21s.88-.06.88-.06h.86l.43.03h.02l.76.17.28.09.41.23.08.07.14.11.17.33.1.33v.02"/>
    <polyline class="cls-11" points="181.86 439.07 181.87 439.08 181.98 439.31 181.86 439.07"/>
    <path class="cls-11" d="M273.04,362.09c-2.08-.26-4.19,0-6.23.54-.92-.64-2.11-.75-3.17-.16-3.77,2.1-7.5,4.26-11.19,6.48-5.31,2.74-10.5,5.71-15.56,8.88-11.32,7.07-22.05,15.04-32.53,23.27-5.2,4.08-10.33,8.24-15.45,12.41-4.58,3.73-9.4,7.34-13.24,11.85-1.92,2.24-3.61,4.68-4.81,7.38-.4.89-.52,1.68-.13,2.59.32.77,1.02,1.55,1.91,1.69,1.03.16,2.07.24,3.09.25.01,2.35.65,4.67,2.28,6.47,2.28,2.51,5.89,2.73,8.94,1.72,3.1-1.02,6.06-2.74,8.86-4.39,2.91-1.71,5.72-3.57,8.49-5.5,11.55-7.99,22.9-16.26,34.34-24.41,11.47-8.17,22.94-16.33,34.4-24.49,2.27-1.61,4.57-3.24,6.5-5.26,1.8-1.88,3.45-4.23,3.93-6.84.57-3.17-.26-6.19-2.41-8.61-2.03-2.28-5.05-3.53-8.02-3.9M186.4,435.08c-1.07.99-1.07,2.75-.2,3.84l.42.42-.05.02-.33.15h-.02s-.03.02-.03.02c-.57.21-1.13.41-1.71.55l-.44.09h-.88s-.32-.07-.32-.07l-.21-.09-.05-.02-.09-.06-.22-.19-.04-.05-.24-.37v-.02s-.12-.22-.12-.22v-.02l-.03-.05.02.05-.25-.89-.03-.2v-.09s-.02-1.08-.02-1.08l.03-.38c.64-.19,1.27-.4,1.9-.64,1.57-.62,3.06-1.35,4.53-2.16l-1.61,1.46M192.27,423.96c-2.06,1.42-4.13,2.85-6.29,4.11,1.75-1.99,3.7-3.8,5.63-5.63,1.42-1.33,2.83-2.66,4.27-3.97-1.32,1.75-2.52,3.59-3.61,5.49M229.47,396.95c-5.7,4.36-11.45,8.65-17.25,12.87,1.09-.95,2.19-1.91,3.3-2.85,1.3-1.1,2.61-2.19,3.94-3.26.62-.5,1.25-1.01,1.87-1.51l.94-.74.12-.09.6-.47c2.62-2.03,5.27-3.99,7.98-5.91,2.62-1.86,5.3-3.67,8-5.43-3.16,2.49-6.34,4.96-9.5,7.38M265.05,375.86c1.01-.85,2.03-1.7,3.03-2.55l.33-.36.34.92c-1.24.65-2.47,1.31-3.7,1.99M267.95,369.11l-.78-.5.86-.25-.09.75M273.66,378.01l-.33.05.33-.05M277.79,373.22l.02-.13-.02.13M277.84,372.25l-.02.56v.22s-.2.83-.2.83l-.07.31v-.04s-.3.65-.3.65l-.88,1.41-.25.31-.52.58-1.28,1.28-1.39,1.2-.2.16-.23.17.65-1.1.29-.45.03-.04.16-.19.13-.12c1.09-.22,2.22-.92,2.41-2.1.41-2.55,0-5.16-1.31-7.31l.57.3.4.25.2.13.04.03.51.46.47.51h0s.18.29.18.29l.33.52.05.18.15.55.07.33.02.12M277.84,372.19l-.05-.2.05.2"/>
    <polyline class="cls-5" points="240.7 199.34 240.72 199.35 240.89 199.38 240.7 199.34"/>
    <polyline class="cls-5" points="142.23 279.44 142.3 279.55 142.31 279.56 142.23 279.44"/>
  </g>
  <g>
    <path class="cls-20" d="M65.59,240.58c-10.13-5.66-20.72-10.48-31.64-14.39-2.68-.96-5.38-1.86-8.09-2.72-.76-.24-1.56.05-1.88.82-1.34,3.2-2.67,6.41-4.01,9.61-.32.78.13,1.53.82,1.89,10.5,5.35,19.65,13.17,26.65,22.64l.96.56c5.48,6.86,10.53,14.06,15.12,21.55,7.35,11.97,13.51,24.68,18.41,37.85,4.9,13.17,8.53,26.81,10.77,40.69,2.3,14.2,3.34,28.76,2.23,43.13-1.13,14.57-4.63,29.29-12.35,41.85-.94,1.53-1.94,3.03-3,4.48-.49.67-.31,1.51.29,2.04,1.11.96,2.21,1.93,3.32,2.89,1.04.91,2.05,1.99,3.24,2.71,2.44,1.49,4.49-.17,6.3-1.78,3.73-3.31,7.26-6.84,10.57-10.57,6.62-7.43,12.32-15.64,17.1-24.37,9.52-17.41,15.17-37.02,16.06-56.85.86-19.03-2.72-38.15-10.07-55.72-7.36-17.58-18.48-33.56-32.57-46.4-8.54-7.78-18.15-14.29-28.22-19.92Z"/>
    <path class="cls-2" d="M77.26,450.42l-.61.82-.61.95c-.39.61-.78,1.21-1.18,1.82-.8,1.23-1.6,2.47-2.4,3.7-.38.58-.96,1.23-1.02,1.94-.07.83.64,1.34,1.19,1.84.53.47,1.06.94,1.59,1.41.49.44.97.96,1.53,1.33,1.25.83,2.7.05,3.94-.45,2.68-1.09,5.21-2.53,7.53-4.25l.6-.36c.33-.44.21-1.01-.19-1.35-2.21-1.91-4.42-3.82-6.64-5.73-.55-.47-1.09-.95-1.64-1.42-.62-.53-1.38-.86-2.08-.25ZM73.51,459.65l.05-.08.04.08-.02.06-.06-.05ZM75.54,461.49l1-.11-.58.48-.41-.37ZM78.38,452.38h-.18s.06-.09.06-.09l.11.09ZM75.31,456.92l.07.22-.5.4.43-.67v.05ZM84.59,458.17v-.43s.38.33.38.33l-.38.1ZM78.52,451.91"/>
    <path class="cls-2" d="M24.93,223.05c-1.51-.28-3.04-.52-4.55-.75-1.73-.26-3.46-.49-5.2-.69-.54-.06-.98.33-1.07.85-.26,1.41-.75,2.76-1.24,4.1-.25.69-.5,1.38-.72,2.08l-.12,1.33.87.9c2.44,1.6,4.92,3.17,7.55,4.44l.62.95c.51.2,1.04-.07,1.26-.55,1.28-2.8,2.42-5.67,3.4-8.6.24-.71.48-1.45.59-2.2l-.07-1.06c-.23-.54-.78-.7-1.31-.8ZM22.24,228.05h-.02s.02,0,.02,0ZM14.55,228.15h-.2s.06-.16.06-.16l.14.16ZM19.94,231.93c.58.17,1.17.29,1.77.34l-.32.75-.17-.14c-.42-.32-.85-.64-1.28-.96ZM22.05,229.98l.58-.02-.13.33-.45-.31ZM23.23,227.71l.23.03-.03.1-.19-.13Z"/>
    <path class="cls-2" d="M84.16,457.52c7.59-6.71,13.49-15.02,18.61-23.71,4.91-8.34,9.15-17.06,12.64-26.09,3.46-8.97,6.18-18.22,8.13-27.63,1.92-9.23,3.15-18.66,3.13-28.1-.04-17.29-4.78-34.12-12.97-49.29-8.48-15.72-20.23-29.37-33.77-40.94-15.54-13.28-33.23-23.8-51.42-33.02-2.29-1.16-4.59-2.3-6.9-3.42-1.68-.82-2.74,1.89-1.07,2.71,18.12,8.82,35.83,18.72,51.7,31.2,14,11,26.42,24.03,35.71,39.27,8.58,14.06,14.33,29.97,15.56,46.45.69,9.21-.04,18.48-1.52,27.58-1.52,9.33-3.84,18.53-6.88,27.49-3.05,8.98-6.84,17.71-11.31,26.08-4.56,8.54-9.78,16.91-16.31,24.1-1.61,1.77-3.32,3.45-5.11,5.03-1.39,1.24.37,3.54,1.78,2.3Z"/>
    <path class="cls-8" d="M76.52,216.7c-10.64-4.25-21.57-8.03-32.88-10.04-5.61-1-11.3-1.51-16.99-1.42-2.79.05-5.66.15-8.42.62-1.31.23-2.6.64-3.58,1.56-1.03.98-1.44,2.3-1.76,3.64-.77,3.26-1.44,6.54-2.16,9.81-.18.82.58,1.45,1.28,1.61,4.81,1.1,9.44,2.82,13.79,5.09l.09.07c13.85,10.19,26.81,21.57,38.68,34.02,11.85,12.43,22.63,25.88,32.19,40.15,9.53,14.23,17.83,29.27,24.76,44.93,6.82,15.39,12.43,31.39,16.23,47.79,3.72,16.08,5.7,32.64,4.9,49.15-.1,2.02-.24,4.03-.41,6.04-.07.83.49,1.45,1.28,1.61,3.76.73,7.51,1.46,11.26,2.2.66.13,1.25-.36,1.52-.91,11.13-22.95,21.17-46.67,26.34-71.74,4.48-21.72,5.09-44.62-.52-66.2-2.86-10.98-7.31-21.42-13.37-31.03-6.63-10.52-15-19.88-24.32-28.08-19.73-17.36-43.66-29.2-67.9-38.88Z"/>
    <path class="cls-2" d="M82.56,231.83c-20.29-9.99-42.23-16.4-64.48-20.26.11-.59.22-1.19.33-1.78.22-1.14.46-2.4-.12-3.48l-1.03-.58c-2.67.53-5.31,1.14-7.94,1.83-1.33.35-2.66.72-3.98,1.11-.66.19-1.31.39-1.97.59-.65.2-1.34.39-1.8.93-.43.51-.42,1.11-.46,1.73-.04.54-.14,1.07-.28,1.59-.31,1.16-.73,2.31-.81,3.51-.05.69-.03,1.41.5,1.92.49.47,1.28.72,1.89.98,1.22.54,2.46,1.02,3.73,1.45,1.46.5,2.95.91,4.45,1.26,1.22.28,2.47.57,3.73.52l.61.33c.55.06.97-.34,1.07-.85.46-2.42.91-4.84,1.37-7.26,19.13,3.31,37.95,8.52,55.76,16.32,19.79,8.68,38.25,20.65,53.44,36.09,14.8,15.04,26.34,33.11,32.76,53.27,6.13,19.28,7.69,39.88,6.08,59.97-1.79,22.34-7.42,44.17-14.73,65.29v.05c-2.47-.55-4.92-1.1-7.38-1.65-.51-.11-1.02.37-1.07.85v.22s0,.13,0,.13c.09,2.61.19,5.22.28,7.83.04,1.28.09,2.56.14,3.83.04,1.16.16,2.35,1.13,3.12,1.02.82,2.51.89,3.75,1.1,1.25.22,2.5.44,3.75.65l1.36.02c.75-.17,1.21-.69,1.51-1.37.53-1.17.98-2.37,1.47-3.55,1.12-2.72,2.25-5.45,3.37-8.18.26-.63-.2-1.19-.79-1.32-1.25-.28-2.49-.55-3.73-.84,6.49-18.82,11.65-38.16,14.02-57.95,2.47-20.72,1.82-42.03-3.45-62.3-5.41-20.77-15.82-39.78-30.06-55.82-14.63-16.49-32.67-29.59-52.4-39.31ZM16.71,207.82v.34s-.44-.04-.44-.04l-.18.03-.73-.05,1.34-.28ZM14.35,220.94l-.31-.13.37-.17-.06.29ZM4.9,212.29l-.42-.24.63-.04-.21.28ZM13.22,217.72l-.13-.12.21-.02-.08.14ZM8.28,210.06l-.74-.03.7-.19.04.23ZM145.01,459.2l-.45-1.11.45,1.11ZM147.1,457.22v-.42s.35.24.35.24l-.35.18ZM152.51,459.96l-.03-.07.08-.05-.05.12ZM146.76,451.85l-.05-.41.7.22-.64.19ZM153.25,455.64v-.17s.12,0,.12,0l-.12.17ZM154.8,452.71l-.47-.32-.2-.1.26-.4.84-.51-.44,1.33Z"/>
    <path class="cls-9" d="M172.98,214.41c-21.52-15.88-46.79-26.75-73.37-30.28-23.78-3.16-48.43-.57-70.83,8.14-2.69,1.05-5.34,2.19-7.96,3.41-.85-.52-2.14-.27-2.15.99-.04,3.31-.07,6.62-.1,9.93,0,.64.26,1.28.91,1.52,18.9,6.84,36.79,16.22,54.19,26.18,17.34,9.93,34.21,20.77,49.98,33.06,15.32,11.95,29.63,25.28,42,40.28,10.79,13.09,20.13,27.41,27.37,42.77,7.16,15.18,12.24,31.36,14.49,48.01.28,2.11.52,4.22.72,6.34.06.6.66,1.2,1.27,1.24,1.88.1,3.76.2,5.63.3.48.03,1.06-.13,1.33-.57,11.86-19.33,18.54-41.59,19.81-64.21,1.26-22.57-2.75-45.51-12.15-66.12-11.08-24.29-29.77-45.21-51.15-60.99Z"/>
    <path class="cls-2" d="M154.72,232.06c-19.09-12.12-40.06-21.25-61.91-27.06-21.88-5.81-44.55-8.36-67.16-7.41-1.33.05-2.65.13-3.98.21l-.14-1.22c-.1-.63-.26-1.28-.89-1.58-.54-.26-1.18-.15-1.76-.12-2.52.12-5.03.35-7.52.68l-.82,1.1c.51,2.97.25,6.01-.78,8.84-.17.47.04,1.09.55,1.26.65.22,1.31.4,1.97.56l.55.57c2.14.57,4.35,1.12,6.56,1.34.49.05,1.02.02,1.43-.28.54-.39.71-1,.66-1.63-.06-.68-.14-1.34-.16-2.02v-.6c.04-1.01.14-2.01.23-3.01,20.81-1.31,41.78.44,62.12,5.03,21.52,4.86,42.41,12.97,61.5,24.05,10.85,6.3,21.28,13.48,30.52,21.98,7.87,7.24,14.68,15.58,20.35,24.63,10.89,17.37,17.43,37.27,20.61,57.44,1.61,10.23,2.4,20.6,2.39,30.95-.01,11.19-.52,22.72-3.45,33.57-.33,1.23-.71,2.46-1.11,3.67-1.75-.34-3.53-.51-5.28-.08l-.8.83-.48.71c-.11,2.03-.22,4.07-.33,6.1l.61,1.01c1.25.38,2.53.69,3.82.91,1.23.21,3.02.74,3.73-.65.57-1.11.86-2.44,1.11-3.65l.13-.73c4.07-10.61,5.3-22.06,5.73-33.35.41-10.66.05-21.37-1.17-31.97-2.41-20.84-8.16-41.54-18.26-59.99-5.05-9.22-11.12-17.87-18.29-25.56-8.9-9.55-19.28-17.56-30.28-24.54ZM12.63,197.36v.12s-.02.05-.02.05l-.02-.17h.04ZM12.79,199.85l1,.25-.56-.07-.53.1v-.3s.09.03.09.03ZM12.63,201.84h-.05s0-.03,0-.03l.05.03ZM19.35,206.06h.03s0,.02,0,.02l-.03-.02ZM19.4,203.76l-.31-.09.22-.03.11-.03v.15ZM209.75,406.41l.61.29-.59-.04h-.02s.01-.25.01-.25Z"/>
    <path class="cls-17" d="M190.4,211.12c1.17.55,2.4,1.01,3.65,1.22-1.19-.54-2.4-.96-3.65-1.22Z"/>
  </g>
  <g>
    <polygon class="cls-10" points="329.51 297.58 329.47 297.57 329.47 297.58 329.51 297.58"/>
    <path class="cls-16" d="M443.86,258.95c.01,4.72-1.13,9.44-2.02,14.05-.15.8-.31,1.61-.48,2.4-.5,2.58-1.02,5.16-1.57,7.73-.33,1.59-.66,3.17-1.01,4.76-.51,2.38-1.02,4.77-1.56,7.14-.48,2.17-.98,4.34-1.51,6.5-1.13,4.71-2.37,9.38-3.82,14-2.7,8.62-6.19,17.09-11.18,24.65-3.41,5.16-7.46,9.83-11.81,14.2-1.8,1.81-3.65,3.56-5.54,5.27-.44.4-.88.81-1.33,1.21-6.12,5.5-12.52,10.69-18.57,16.28-7.07,6.53-13.63,13.57-20.26,20.54-2.86,3.01-5.73,6.02-8.65,8.97-1.79,1.8-3.59,3.58-5.43,5.32-2.12,2.02-4.28,4-6.48,5.93-3.64,3.18-7.41,6.22-11.27,9.13-3.42,2.57-7.51,6.36-12.14,5.82-.8-.1-1.67-.82-1.33-1.75.63-1.69,1.36-3.35,2.17-4.96,3.2-6.35,7.24-12.3,10.9-18.38,3.37-5.59,6.68-11.21,9.87-16.9.3-.54.61-1.08.91-1.63.74-1.34,1.48-2.68,2.2-4.03,6.01-11.11,11.49-22.54,15.76-34.43.96-2.66,1.85-5.34,2.69-8.03.68-2.2,1.31-4.41,1.9-6.63.53-1.99,1.01-4,1.46-6.01,1.67-7.5,2.85-15.09,4-22.69,2.34-15.46,4.68-30.92,7.02-46.38l.13-.85c.29-1.95.59-3.9.99-5.84.27-1.3.6-2.59,1.02-3.85,1.01-3.01,2.54-5.76,4.63-8.16,2.98-3.42,6.93-5.94,11.2-7.45-.31-.81.1-1.94,1.23-1.97,2.26-.06,4.53-.03,6.79.12,6.12.41,12.19,1.57,18.02,3.48,3.09,1.01,6.11,2.23,9.03,3.65,1.12.54,2.23,1.13,3.31,1.77,2.35,1.4,4.55,3.05,6.34,5.09,2.95,3.35,4.33,7.47,4.35,11.92"/>
    <path class="cls-13" d="M507.59,129.32c-.88,2.07-1.91,4.06-3.08,5.98-2.32,3.83-5.12,7.35-8.06,10.72-2.99,3.42-6.14,6.7-9.2,10.05-1.52,1.67-3.02,3.35-4.47,5.07-.73.88-1.45,1.76-2.15,2.66-.68.87-1.42,1.75-1.98,2.71-.43.74-.97,1.9-.54,2.75.6,1.21,2.59.47,3.57.26,2.74-.58,5.45-1.23,8.15-1.96,1.37-.37,2.73-.77,4.1-1.17.87-.25,1.8-.45,2.72-.3.81.12,1.54.59,1.83,1.4.12.32.15.66.11.99l-.05.28c-.12.55-.4,1.09-.72,1.55-.7,1-1.59,1.89-2.41,2.79l-.48.51c-.32.34-.64.68-.96,1.02-.35.37-.7.73-1.06,1.09-1.74,1.77-3.55,3.48-5.4,5.14-3.68,3.31-7.52,6.44-11.39,9.52-7.37,5.87-14.88,11.6-21.69,18.11,2.43-.51,4.85-1.03,7.28-1.54l.52.21c.65,1.29.18,2.54-.58,3.63l-.26.35c-.33.43-.69.83-1.04,1.19-.83.87-1.67,1.73-2.52,2.59l-.54.54c-.72.72-1.45,1.43-2.18,2.14-3.21,3.06-6.55,5.97-10.01,8.74-.86.69-1.75,1.36-2.62,2.04-.76.6-1.54,1.26-2.01,2.13-.5.93-.57,2.02-.99,3-.41.95-1.01,1.78-1.65,2.59-2.9,3.72-5.89,7.39-8.83,11.08-.69.86-1.36,1.76-2.08,2.6l-.38.4-.21.19c-.4.34-.86.62-1.39.71-1.01.17-2.2-.7-2.19-1.7-.29-.31-.55-.65-.78-1l-.02-.03c-1.88-2.87-1.83-6.77-1.36-10.09.36-2.56.91-5.12.82-7.72-.08-2.44-.94-4.58-2.19-6.64-1.16-1.92-2.5-3.73-3.46-5.77-.9-1.93-1.49-3.98-1.78-6.09-.29-2.14-.25-4.31.1-6.45.34-2.05.93-4.31,2.06-6.07l.12-.19c.27-.39.61-.76.99-1.05.84-.65,1.89-.92,2.88-.17,1.06.79,1.27,2.31,2.2,3.19.79-2.47,1.57-4.95,2.36-7.42,1.74-5.49,3.48-10.98,5.22-16.47.36-1.11.79-2.51,1.62-3.45.26-.29.54-.54.89-.71l.6-.23c1.11-.28,1.98.36,3.01.61,1.12.28,2.13-.35,2.9-1.13.87-.89,1.49-1.98,2.11-3.05.64-1.11,1.25-2.23,1.83-3.37,1.2-2.35,2.29-4.76,3.32-7.19,2.06-4.83,3.91-9.76,6.06-14.55,3.72-8.31,8.6-16.54,16.14-21.92,1.25-.89,3.36-2.51,5-1.74l.45.28c.43.35.66.83.79,1.34.11.45.15.94.18,1.41.11,1.42.21,2.84.31,4.26.06.73.11,1.47.16,2.2.05.62.09,1.34.51,1.85.7.85,1.97.5,2.83.12,1.18-.52,2.22-1.34,3.28-2.04,1.17-.77,2.34-1.55,3.5-2.32,2.41-1.6,4.81-3.2,7.22-4.8,2.15-1.43,4.28-3.04,6.67-4.05,1.93-.81,4.1-1.13,6.11-.4l.38.15c.92.4,1.7,1.01,2.26,1.79.49.68.82,1.47.94,2.36.31,2.24-.52,4.46-1.38,6.49Z"/>
    <path class="cls-2" d="M401.55,264.15c-.43.65-1.06,1.01-1.62,1.52-.47.43-1.34.47-1.96.56l-.87.09-.87-.09c-.58-.07-1.17-.14-1.74-.27-2.13-.49-4.22-1.13-6.3-1.81-2.05-.66-4.08-1.34-6.11-2.06-1.73-.61-3.45-1.21-5.14-1.91.29-1.95.58-3.9.99-5.84,3.15.58,6.26,1.36,9.35,2.14,1.78.45,3.55.89,5.35,1.24.89.17,1.78.31,2.67.47.48.09.97.16,1.46.23.45.06.89.22,1.33.35.6.15,1.29.25,1.75.65.55.48,1.16.78,1.63,1.36.35.44.43,1.13.44,1.67.01.55-.04,1.21-.36,1.68Z"/>
    <path class="cls-2" d="M441.37,275.41c-.5,2.58-1.02,5.16-1.57,7.73-1.79-.33-3.58-.7-5.35-1.14-2.23-.55-4.44-1.17-6.59-1.97-1.07-.39-2.12-.8-3.13-1.33l-.8-.5-.78-.71c-.46-.42-.92-.82-1.43-1.17-.54-.37-.57-1.38-.56-1.96.01-.35.05-.7.17-1.04l.49-.54.94-.02.8-.15.88-.12.88.12c1.15.15,2.3.47,3.43.7,2.15.43,4.28.91,6.43,1.28,2.05.34,4.12.6,6.18.81Z"/>
    <path class="cls-2" d="M437.24,295.04c-.48,2.17-.98,4.34-1.51,6.5-3.02-.53-6.04-1.08-9.03-1.73-.9-.2-1.8-.38-2.7-.59-.37-.08-.68-.21-1-.4-.45-.25-.71-.58-.95-1.03-.36-.64-.51-1.38-.57-2.1-.09-1.07.04-2.06.53-3l.53-.67.53-.15.67-.06c.43.04.86.19,1.27.28.9.19,1.79.39,2.69.58,1.81.39,3.6.88,5.39,1.33,1.38.35,2.76.68,4.14,1.03Z"/>
    <path class="cls-2" d="M393.56,294.62c.83.77,1.69,1.59,2.65,2.2.91.58,1.82,1.08,2.83,1.46,1.02.38,2.07.7,3.12.97.49.12.98.25,1.48.31h.81s.62-.24.62-.24l.52-.57-.29.3.58-.7c.74-1.18.6-3.03-.1-4.18-.43-.71-.98-1.29-1.84-1.42-.51-.08-1.03-.1-1.54-.15-1.02-.09-2.04-.24-3.04-.46-.48-.1-.94-.24-1.42-.33-.51-.09-1.01-.18-1.51-.3-.91-.21-1.85-.3-2.76-.54l-.52.55c-.12.34-.17.7-.18,1.06-.02.69.06,1.52.59,2.01Z"/>
    <path class="cls-2" d="M392.91,339.11c-1.65.47-3.27,1-4.9,1.53-.79.25-1.59.41-2.4.58-.8.17-1.6.36-2.41.47-5.73.84-11.57,1.5-17.37,1.28-1.13-.04-2.26-.11-3.39-.22.68-2.2,1.31-4.41,1.9-6.63,4.43.34,8.88.28,13.3-.04,2.54-.18,5.07-.47,7.61-.65.64-.04,1.28-.12,1.91-.14.61-.03,1.23.03,1.84.04,1.27.03,2.54.03,3.81-.01l.62.54c.21.4.26.89.28,1.33.03.64-.08,1.71-.81,1.92Z"/>
    <path class="cls-2" d="M404.52,354.11c1.46.09,2.94.13,4.4.29-1.8,1.8-3.65,3.56-5.53,5.27-.44.41-.89.81-1.33,1.21-1.73-.22-3.54-.48-5.17-1.14-1.56-.64-2.92-1.54-4.22-2.59-.7-.56-1.42-1.07-2.1-1.65h-.01s-.01-.02-.01-.02l-.03-.02h0s-.12-.1-.12-.1l-.28-.2-.45-.3c-.33-.22-.68-.4-1.04-.56-.38-.17-.45-.84-.47-1.19-.01-.32.05-1.05.41-1.21.67-.3,1.37-.48,2.1-.53.41-.03.75-.02,1.15.09l.97.3c1.31.44,2.53,1.07,3.86,1.43,2.59.6,5.22.79,7.87.95Z"/>
    <path class="cls-2" d="M355.97,388.18l-.42.73c-.87.31-1.74.63-2.61.92-.87.3-1.79.45-2.68.62-3.09.57-6.24.62-9.37.43h0c.3-.54.61-1.08.91-1.63.74-1.34,1.48-2.68,2.2-4.03.97.1,1.94.18,2.91.22,1.41.07,2.82.19,4.24.22,1.38.04,2.76.19,4.14.2.56,0,.72.92.76,1.33.03.34,0,.67-.07,1"/>
    <path class="cls-2" d="M354.57,406.67c-1.79,1.8-3.59,3.58-5.43,5.32-.76-.28-1.51-.59-2.21-.96-1.52-.78-2.99-1.72-4.47-2.6-.77-.45-.84-1.65-.77-2.43.04-.38.18-.9.44-1.2.24-.27.45-.3.78-.22.34.09.67.17,1.01.25h0c.8.19,1.64.3,2.46.42.81.11,1.59.28,2.39.43,1.92.37,3.84.74,5.79.99"/>
    <path class="cls-19" d="M496.43,170.35c-1.63,1.22-3.24,2.46-4.87,3.68-3.28,2.46-6.64,4.85-10.1,7.06-3.39,2.16-6.93,4.08-10.5,5.94-3.55,1.85-7.1,3.71-10.46,5.89-6.41,4.18-11.67,9.74-16.25,15.83-2.3,3.06-4.43,6.24-6.51,9.45-2.18,3.37-4.38,6.76-6.32,10.28-2.04,3.7-3.63,7.57-4.95,11.59-.29.89-.58,1.79-.86,2.68.22-1.44.46-2.87.74-4.31,1.06-5.4,2.43-10.75,4.08-16,3.3-10.46,7.79-20.55,13.14-30.11,5.42-9.66,11.76-18.77,18.74-27.36,6.98-8.61,14.62-16.68,22.67-24.29,7.39-6.98,15.09-13.63,23.03-19.98-.56-.77-1.34-1.39-2.26-1.79-6.35,5.14-12.55,10.48-18.53,16.05-8.26,7.69-16.1,15.87-23.31,24.56-7.16,8.62-13.69,17.78-19.33,27.47-5.61,9.63-10.38,19.77-13.98,30.33-1.66,4.86-3.07,9.79-4.21,14.79.66-3.89,1.48-7.76,2.43-11.59,2.26-9.06,5.33-17.91,9.11-26.45,3.79-8.58,8.24-16.86,12.54-25.19,2.17-4.2,4.31-8.43,6.33-12.71,2.06-4.36,3.91-8.79,5.74-13.26,1.79-4.37,3.82-8.56,6.39-12.53,1.75-2.71,3.68-5.29,5.67-7.83-.12-.52-.35-.99-.79-1.34l-.45-.28c-1.07,1.27-2.1,2.57-3.1,3.89-2.82,3.72-5.19,7.66-7.1,11.93-1.95,4.38-3.65,8.86-5.65,13.22-1.99,4.32-4.12,8.56-6.3,12.78-4.41,8.51-8.98,16.94-13.03,25.64-4.08,8.76-7.44,17.82-9.99,27.15l-.13.49c.62-3.67,1.17-7.35,1.65-11.04.69-5.38,1.27-10.78,1.71-16.19.41-5.09.77-10.18.98-15.29-.34.18-.63.42-.89.71-.42,3.93-.81,7.87-1.2,11.81-.55,5.44-1.1,10.87-1.81,16.28-.18,1.36-.37,2.72-.56,4.08l-.14.96-.07.48-.04.24v.09s-.01,0-.01,0h0s0,.01,0,.01h0s0,.02,0,.02h0c-.1.64-.2,1.27-.3,1.9-.43,2.69-.92,5.36-1.42,8.04-.67,3.57-1.36,7.13-1.94,10.71-.2-2.82-.52-5.64-1.04-8.42-.39-2.12-.87-4.22-1.47-6.29-.56-1.94-1.22-3.86-1.85-5.77-.71-2.17-1.39-4.35-1.89-6.58l-.16-.74-.05-.25-.07-.4c-.09-.54-.17-1.08-.22-1.62l-.03-.24c-.38.29-.72.66-.99,1.05.14,2.76.8,5.52,1.54,8.13.57,1.99,1.23,3.95,1.83,5.93.3.97.58,1.96.84,2.94.13.52.26,1.03.38,1.55l.16.7.06.28v.02s.06.27.06.27c.41,2.03.72,4.07.96,6.12.06.52.11,1.05.16,1.57l.03.29v.13s.08.82.08.82c.08,1.06.13,2.11.17,3.17.08,2.07.09,4.15.04,6.22,0,.49-.02.97-.04,1.45v.44s-.02.08-.02.08l-.04.87c-.05,1.02-.1,2.03-.17,3.05-.1,1.58-.22,3.17-.35,4.76.23.35.49.68.78,1,0,.99,1.18,1.87,2.19,1.7.53-.09.99-.37,1.39-.71l.21-.19c.32-.66.66-1.32,1.01-1.97,2-3.68,4.31-7.19,6.73-10.6,2.41-3.4,4.92-6.74,7.48-10.04,1.22-1.57,2.48-3.12,3.9-4.52,1.46-1.44,3.08-2.67,4.82-3.75,1.99-1.23,4.05-2.35,6.11-3.47l.7-.38.54-.3c.85-.85,1.69-1.72,2.52-2.59.44-.46.91-.98,1.3-1.54l-.26.11c-3.5,1.44-6.99,2.91-10.33,4.68-1.82.97-3.56,2.1-5.11,3.46-1.56,1.36-2.92,2.92-4.23,4.52-2.66,3.27-5.22,6.64-7.72,10.03-2.52,3.43-4.92,6.96-7,10.69l-.03.06c1.17-3.82,2.46-7.61,4.26-11.19,1.81-3.61,3.98-7.04,6.14-10.45,2.02-3.2,4.08-6.37,6.28-9.45,4.35-6.11,9.28-11.85,15.4-16.27,6.45-4.65,13.8-7.89,20.51-12.14,3.46-2.19,6.8-4.57,10.06-7.05,1.47-1.11,2.92-2.25,4.36-3.4l.45-.36.51-.41.48-.51c.83-.9,1.71-1.79,2.41-2.79.37-.54.7-1.18.77-1.83l-.05.03c-.72.5-1.4,1.05-2.1,1.58Z"/>
    <path class="cls-2" d="M382.07,296.07c-.76-.6-1.53-1.18-2.31-1.76-.88-.65-1.78-1.29-2.68-1.92l-.85.16c-.56.7-1.23,1.31-1.89,1.91-.34.31-.68.62-1.01.94l-.46.7.22.75c.89,1.61,1.8,3.21,2.89,4.69l.06.71.86.07c1.54-1.18,3.02-2.44,4.42-3.78.35-.33.69-.66.98-1.05l.27-.62c.02-.36-.23-.62-.49-.83ZM379.11,298.05h-.01s.01,0,.01,0ZM374.81,295.84l-.11-.06.08-.07.03.13ZM376.68,299.53l.89.71-.4.32-.06-.13-.43-.91ZM378.43,299.07l.33.16-.17.15-.16-.31ZM379.75,298.15l.12.09-.05.05-.07-.13Z"/>
    <path class="cls-14" d="M397.69,273.6c-.08.53-.17,1.05-.26,1.57-.36,2.13-.76,4.26-1.17,6.39-1.27,6.43-2.76,12.82-4.5,19.12-1.62,5.82-3.48,11.58-5.67,17.22-.98,2.54-2.04,5.05-3.16,7.53-3.52,7.76-7.75,15.19-12.87,22.04-5.55,7.43-11.91,14.18-18.18,21-.42.46-.84.92-1.26,1.38-1.78,1.95-3.53,3.93-5.25,5.93-3.8,4.42-7.44,8.97-10.87,13.73-5.25,7.29-10.29,14.77-16.2,21.56-5.34,6.14-12.76,14.39-21.82,12.67-1.07-.2-1.25-1.6-.6-2.31,1.19-1.31,2.36-2.65,3.49-4.02,4.33-5.29,8.07-11.02,11.35-17.02.81-1.48,1.6-2.99,2.36-4.51,2.49-5.02,4.71-10.19,6.69-15.41,4.52-11.91,8.14-24.22,11.27-36.58.29-1.13.57-2.27.85-3.4.18-.72.35-1.43.53-2.16,3.19-13.18,5.63-26.61,6.28-40.18.08-1.67.13-3.34.15-5.02v-.18c.09-6.98-.33-13.98-1.43-20.88l-.04-.19c-.08-.56-.18-1.12-.28-1.68-.15-.79-.3-1.59-.47-2.39h0c-1.36-6.45-3.33-13.03-1.57-19.55,3.06-11.35,14.93-18.23,26.03-19.36l.11-.04c6.78-2.4,14.44-1.84,20.96,1.08,7.42,3.32,12.44,9.89,14.85,17.54,2.68,8.48,2.08,17.46.68,26.12"/>
    <path class="cls-13" d="M389.45,129.89c-.16,2.99-.34,7.03,1.92,9.33,2.31,2.35,6.02,1.63,8.85.88,1.74-.46,3.48-.98,5.29-1.05.54-.03,1.12-.01,1.67.09.69.12,1.34.38,1.83.86l.36.44c.82,1.26.67,3.03.53,4.45-.16,1.59-.53,3.15-1.02,4.66-1.07,3.26-2.64,6.36-4.22,9.38-3.3,6.31-7.13,12.31-10.94,18.31-1.93,3.04-3.87,6.09-5.73,9.17-1.79,2.95-3.69,5.94-5.12,9.08-.68,1.49-1.1,3.28-.14,4.74,1.11,1.68,2.96.96,4.55.57,1.04-.26,2.28-.33,3.23.25l.2.14c.49.36.73.83.81,1.33h0c.12.72-.07,1.53-.33,2.25-2.21,6.33-6.27,11.51-10.57,16.54v.02c-3.52,4.12-7.18,8.14-10.09,12.63.58.22,1.15.44,1.73.67l.27.68c-1.2,2.2-2.44,4.38-3.72,6.53-.42.71-.85,1.41-1.28,2.11h0s-.11.18-.11.18l-.2.33h0s-.28.46-.28.46c-.24.38-.48.78-.74,1.14l-.03.04c-.26.36-.56.69-.92.96l-.55.35h-.01c-.34.17-.67.26-1,.28h-.03s-.04,0-.04,0l-.56-.04c-1.31-.24-2.44-1.49-3.25-2.8-2.21-1.81-4.41-3.63-6.54-5.53-4.34-3.89-8.44-8.18-11.47-13.2-1.41-2.34-2.79-5.07-3.46-7.88-.38-1.59-.53-3.21-.33-4.79.1-.87.32-1.73.66-2.58l.57-.32c2.17.62,3.03,2.85,4.41,4.4.82.91,1.97,1.56,3.19.99,1.39-.65,2.1-2.39,2.41-3.79.78-3.45.17-7.33-.61-10.72-1.51-6.61-4.41-12.83-5.49-19.54-.48-2.97-.63-6-.12-8.98.24-1.44.65-2.86,1.23-4.21l.44-.93c.32-.58.73-1.12,1.3-1.4l.84-.21c2.69-.1,3.5,3.34,4.81,5,.83,1.05,2.29,1.86,3.18.37.45-.75.54-1.72.65-2.56.1-.81.17-1.63.22-2.44.84-13.27-4.6-26.78-.31-39.84.44-1.37,1-2.71,1.68-3.98l.51-.95c.27-.5.58-1,.91-1.47.35-.49.72-.94,1.15-1.32.88-.78,2.15-.91,2.92.08.74.96.7,2.27,1.29,3.3.69,1.2,2.32,1.27,3.46.72,1.44-.7,2.17-2.33,2.65-3.76,1.13-3.34,1.73-6.85,2.39-10.3,1.22-6.41,2.66-12.91,6.89-18.08,1.85-2.26,4.18-4.17,6.91-5.25.67-.26,1.38-.49,2.12-.65.93-.2,1.89-.31,2.83-.27,1.26.06,2.48.37,3.53,1.07,2.37,1.58,3.06,4.56,3.09,7.24.02,3-.66,6.04-1.37,8.94-1.53,6.24-3.84,12.25-5.39,18.48-.77,3.08-1.35,6.21-1.52,9.39Z"/>
    <path class="cls-2" d="M336.62,267.8c.79.08,1.59.19,2.38.25h.15s-.26,0-.26,0h.11c2.32.14,4.64.17,6.95,0,1.18-.09,2.36-.21,3.54-.36.6-.07,1.2-.16,1.8-.25l.89-.14h.4s.63.16.63.16l.3.19-.32-.2h.02s.94.2.94.2c.4.18.63.57.85.93.27.45.44.94.56,1.46.15.64.35,1.74-.2,2.26l-.72.39-.21.12.25-.17-.04.06c-.3.4-.78.41-1.24.44-.42.03-.83.06-1.25.09-.79.05-1.57.09-2.36.11-1.42.04-2.85.04-4.27-.02-1.46-.06-2.94-.14-4.38-.39-.69-.12-1.38-.26-2.06-.43-.55-.13-1.13-.26-1.68-.44l-.78-4.27Z"/>
    <path class="cls-2" d="M397.69,273.59c-.09.53-.17,1.05-.26,1.57-.37,2.13-.76,4.26-1.17,6.39-3.44.45-6.96.24-10.4-.2-1-.13-1.98-.3-2.96-.5-1.01-.21-2.05-.4-3.04-.7-.98-.3-1.95-.61-2.92-.93-1.07-.35-2.1-.92-3.12-1.39-.64-.3-.92-1.2-1.07-1.83-.08-.36-.13-.72-.1-1.09l.34-.67c1-.09,2.02-.25,3.03-.2,1.59.08,3.18.14,4.76.29,1.53.14,3.06.25,4.59.34h.09c2.86.14,5.68-.04,8.52-.39,1.25-.15,2.5-.38,3.73-.69Z"/>
    <path class="cls-2" d="M386.08,317.89c-.98,2.54-2.04,5.05-3.16,7.53-2.91-.15-5.8-.6-8.66-1.1-2.53-.45-5.06-.87-7.56-1.45-1.27-.29-2.52-.59-3.79-.88-1.35-.31-2.65-.78-3.94-1.29-.63-.25-.91-1.22-1.04-1.81-.09-.35-.14-.71-.11-1.08l.33-.66c.79-.13,1.54-.22,2.34-.24.78-.02,1.56,0,2.34.02,1.4.05,2.81.1,4.21.15,1.52.07,3.06.27,4.57.41,2.64.25,5.27.49,7.92.62h.07s.03,0,.03,0c2.15.08,4.31.05,6.44-.24"/>
    <path class="cls-2" d="M352.75,344.84c.1.41.28,1.37-.11,1.75-.41.4-.89.73-1.45.86-.47.1-.94.27-1.42.36-.49.1-1.01.1-1.51.15-.49.05-.98.1-1.47.13-3.31.21-6.74-.38-9.88-1.41-1.65-.54-3.3-1.2-4.79-2.1-.37-.22-.73-.45-1.09-.69.29-1.13.57-2.27.85-3.4.64.23,1.28.44,1.92.64,2.26.71,4.59,1.12,6.95,1.22,1.7.05,3.42-.06,5.11-.25.5-.06,1-.12,1.5-.19.59-.07,1.16-.05,1.75,0,.54.06,1.06.12,1.56.35.34.15.65.38.94.61l.21.18.03.02.11.11.06.07.04.05.06.08v.02s.09.13.09.13l.03.05.26.52.02.06.21.69"/>
    <path class="cls-2" d="M345.39,369.12c1.73.3,3.48.53,5.23.73-1.78,1.95-3.53,3.93-5.25,5.93l-.08-.02c-1.76-.44-3.48-1.07-5.19-1.7-.88-.33-1.72-.78-2.57-1.21-.88-.44-1.75-.89-2.62-1.36-.85-.46-1.21-1.49-1.37-2.4-.09-.51-.18-1.93.69-1.79,1.84.31,3.71.46,5.54.81,1.87.36,3.75.67,5.63,1"/>
    <path class="cls-2" d="M320.72,400.95c-.02.44-.08,1-.41,1.32l-.75.22c-1.35-.09-2.68-.26-4.01-.52-1.33-.26-2.63-.71-3.89-1.2l-.95-.39c.81-1.48,1.6-2.99,2.36-4.51.37.05.74.09,1.11.14,1.2.16,2.41.25,3.61.27h.22l.92.12c.37.35.62.64.9,1.07.64.97.95,2.33.88,3.48"/>
    <polygon class="cls-19" points="337.39 211.93 337.38 211.92 337.41 211.98 337.39 211.93"/>
    <polygon class="cls-19" points="337.42 212.01 337.41 211.99 337.41 211.98 337.41 211.99 337.42 212.01"/>
    <path class="cls-19" d="M409.02,140l-.39.78c-.52,1.09-1.17,2.13-1.76,3.19-.59,1.05-1.19,2.1-1.78,3.15-1.17,2.07-2.32,4.15-3.52,6.2-2.38,4.06-4.75,8.12-7.12,12.18-4.34,7.44-8.73,14.9-12.26,22.77-3.34,7.44-5.66,15.19-7.43,23.13-1.72,7.66-3.04,15.4-4.82,23.04.33-.83.68-1.66,1.05-2.47,1.7-3.8,3.94-7.31,6.2-10.8,2.35-3.63,4.7-7.26,7.06-10.89,1.16-1.79,2.39-3.54,3.59-5.31.58-.86,1.16-1.73,1.75-2.59.31-.45.63-.89.96-1.32l.2.14c.49.36.73.83.81,1.33h0c-2.15,4.06-4.45,8.04-6.82,11.97-1.36,2.27-2.72,4.55-4.08,6.82v.02c-3.52,4.12-7.18,8.14-10.09,12.63.58.22,1.15.44,1.73.67l.27.68c-1.2,2.2-2.44,4.38-3.72,6.53-.42.71-.85,1.41-1.28,2.11h0s-.11.18-.11.18l-.2.33h0s-.28.46-.28.46c-.24.38-.48.78-.74,1.14l-.03.04c-.26.36-.56.69-.92.96l-.55.35h-.01c-.34.17-.67.26-1,.28h-.03s-.04,0-.04,0l-.56-.04.21-.54c-.41-.67-.85-1.33-1.3-1.96-.26-.38-.52-.75-.79-1.12l-.31-.43-.4-.52c-.57-.73-1.15-1.44-1.75-2.13-4.4-5.06-9.58-9.37-14.1-14.31-2.33-2.55-4.5-5.31-6.23-8.31l-.04-.08c-.38-1.59-.53-3.21-.33-4.79l.32.72.26.55.02.04.08.14.16.3c.44.82.91,1.62,1.42,2.4.24.37.48.73.72,1.08l.36.51.04.06.04.05h0s0,.02,0,.02v.02s.03.02.03.02l.09.11c.5.69,1.03,1.36,1.57,2.02,1.09,1.33,2.23,2.61,3.4,3.86,2.31,2.46,4.76,4.78,7.13,7.16,2.38,2.39,4.69,4.85,6.72,7.55.59.78,1.16,1.57,1.69,2.38-.85-3.15-1.52-6.34-2.18-9.51-1.18-5.72-2.07-11.49-3.19-17.22-1.1-5.65-2.45-11.03-3.95-16.81-1.47-5.68-2.95-11.37-4.42-17.05-.74-2.87-1.49-5.74-2.23-8.61-.37-1.44-.74-2.87-1.11-4.31-.1-.39-.2-.78-.3-1.16.32-.58.73-1.12,1.3-1.4.27.92.49,1.86.74,2.8.42,1.61.84,3.21,1.26,4.82.82,3.16,1.65,6.31,2.47,9.47,2.97,11.38,6.18,22.71,8.31,34.29,1.05,5.72,1.97,11.46,3.05,17.17.64,3.39,1.4,6.74,2.25,10.08.79-2.17,1.49-4.37,2.12-6.59.06-4.98.21-9.96.47-14.93v-.02c0-.5-.01-1-.02-1.5-.14-8.43-.72-16.84-1.64-25.22-.95-8.63-2.15-17.24-2.86-25.91-.69-8.41-.88-16.84-1.41-25.26-.26-4.09-.59-8.17-1.12-12.22-.26-2.04-.58-4.08-.95-6.11-.33-1.83-.75-3.64-1.06-5.47.27-.5.58-1,.91-1.47l.22.47c.37,1.07.69,2.12.95,3.22,1.99,8.36,2.68,17,3.16,25.56.48,8.48.68,16.98,1.42,25.45.75,8.58,1.94,17.12,2.78,25.69.26,2.65.48,5.31.67,7.96.92-10.2,2.2-20.37,3.84-30.48,1.83-11.25,4.13-22.4,6.77-33.48,2.6-10.98,5.14-21.93,6.17-33.19.47-5.16.8-10.33,1.5-15.46.35-2.58.79-5.15,1.4-7.68.27-1.11.54-2.23.89-3.32.93-.2,1.89-.31,2.83-.27-.26,1.24-.55,2.45-.9,3.67-2.9,9.87-2.94,20.24-4.16,30.38-1.34,11.14-4.25,22-6.87,32.89-2.59,10.79-4.76,21.68-6.49,32.65-1.72,10.93-3.01,21.93-3.87,32.97-.19,2.46-.37,4.91-.53,7.37v.02c0,.53,0,1.05,0,1.58-.01,1.38-.03,2.75-.05,4.14.17-.72.33-1.44.49-2.15,1.7-7.71,3.06-15.5,4.94-23.18.93-3.81,1.99-7.59,3.29-11.28,1.42-4.06,3.13-8.01,5.01-11.88,3.8-7.83,8.34-15.25,12.85-22.67,2.41-3.97,4.79-7.96,7.25-11.89,1.24-1.97,2.48-3.95,3.72-5.93.47-.76.91-1.54,1.41-2.29.69.12,1.34.38,1.83.86Z"/>
  </g>
  <path class="cls-15" d="M463.27,718.44H28.27l17.5-424h136.51c.46,19.93,28.71,36,63.49,36s63.03-16.07,63.49-36h136.01l18,424Z"/>
</svg>