<?xml version="1.0" encoding="UTF-8"?>
<svg id="Layer_1" data-name="Layer 1" xmlns="http://www.w3.org/2000/svg" viewBox="0 0 509.04 718.44">
  <defs>
    <style>
      .cls-1 {
        fill: #b5855d;
      }

      .cls-2 {
        fill: #c59066;
      }

      .cls-3 {
        fill: #d3b08a;
      }

      .cls-4 {
        fill: #94704e;
      }
    </style>
  </defs>
  <path class="cls-1" d="M361.77,270.44l-2.5,24h-227.5l-2.5-24-58-22h121c0,17.12,23.95,31,53.5,31s53.5-13.88,53.5-31h121l-58.5,22Z"/>
  <path class="cls-4" d="M129.27,270.44l2.5,24H45.77l83.5-24Z"/>
  <path class="cls-4" d="M361.77,270.44l-2.5,24h86l-83.5-24Z"/>
  <path class="cls-2" d="M70.77,247.94l58.5,22.5-58,16.5-.5-39Z"/>
  <path class="cls-2" d="M420.27,247.94l-58.5,22.5,58,16.5.5-39Z"/>
  <path class="cls-1" d="M309.26,293.44c0,.17,0,.33,0,.5,0,20.16-28.43,36.5-63.5,36.5s-63.5-16.34-63.5-36.5c0-.17,0-.33,0-.5h126.99Z"/>
  <path class="cls-3" d="M463.27,718.44H28.27l17.5-424h136.51c.46,19.93,28.71,36,63.49,36s63.03-16.07,63.49-36h136.01l18,424Z"/>
</svg>